<?xml version="1.0" encoding="utf-8"?>
<!-- Generator: Adobe Illustrator 27.8.1, SVG Export Plug-In . SVG Version: 6.00 Build 0)  -->
<svg version="1.0" id="Layer_1" xmlns="http://www.w3.org/2000/svg" xmlns:xlink="http://www.w3.org/1999/xlink" x="0px" y="0px"
	 viewBox="0 0 162 60" style="enable-background:new 0 0 162 60;" xml:space="preserve">
<path style="fill:#FFFFFF;" d="M151.8,53.1V26h9.2v-5.2h-9.2V8.3H143V48c0,7.2,4.3,10.7,10.5,10.7h7.5v-6.5L151.8,53.1z M134,58.6
	V2.7h-8.7v55.9C125.3,58.6,134,58.6,134,58.6z M116.4,58.6V19.2h-8.7v39.4H116.4z M107.4,12h9.3V2.7h-9.3V12z M77.1,59.4
	c5.6,0,10.1-4.5,13-7.6v6.8h8.7V19.2H90v27.4c-2.4,3.7-6,5.1-10.1,5.1c-4.6,0-7.2-2.6-7.2-7.3V19.2h-8.7v26.9
	C64.1,54.2,68.8,59.4,77.1,59.4L77.1,59.4z M58.9,51.3v7.3H29.4C12.4,58.6,1,45.4,1,29.1S13.4,1,28.4,1c16.4,0,27.8,12.5,27.8,29
	c0,11.3-5.9,21-19.9,21c6-3.7,9.3-12,9.3-21.7c0-13.4-6.5-23.6-17-23.6s-17,10.2-17,23.6c0,14.7,6.6,24.3,20.2,24.3
	C40.8,53.6,58.9,51.3,58.9,51.3L58.9,51.3z"/>
</svg>
